<?xml version="1.0" standalone="no"?>
<!DOCTYPE svg PUBLIC "-//W3C//DTD SVG 20010904//EN"
 "http://www.w3.org/TR/2001/REC-SVG-20010904/DTD/svg10.dtd">
<svg version="1.0" xmlns="http://www.w3.org/2000/svg"
 width="1024.000000pt" height="1024.000000pt" viewBox="0 0 1024.000000 1024.000000"
 preserveAspectRatio="xMidYMid meet">

<g transform="translate(0.000000,1024.000000) scale(0.100000,-0.100000)"
fill="#000000" stroke="none">
<path d="M4630 9493 c-431 -47 -646 -112 -994 -300 -315 -169 -537 -337 -719
-541 -361 -408 -565 -869 -621 -1406 -36 -344 -1 -692 105 -1045 l31 -103 -74
-77 c-198 -202 -342 -477 -364 -697 -7 -71 -11 -75 -71 -92 -25 -8 -60 -30
-86 -55 -78 -77 -95 -182 -45 -281 l20 -39 -35 -71 c-61 -126 -79 -213 -79
-396 0 -146 17 -227 71 -345 67 -144 183 -235 300 -235 43 0 64 -6 101 -30 95
-61 191 -76 284 -44 46 16 48 16 105 -10 126 -56 248 -16 323 105 32 51 32
134 1 215 -4 11 4 14 33 14 89 1 170 54 210 136 40 82 33 158 -28 289 -25 55
-54 125 -63 155 -37 117 -138 259 -221 310 l-34 22 0 79 c0 86 -12 123 -59
172 -30 33 -72 57 -98 57 -47 1 -48 14 -9 114 21 52 45 105 54 116 17 20 19
18 106 -100 164 -222 373 -423 586 -563 120 -78 391 -214 495 -247 39 -12 76
-28 82 -34 10 -9 9 -33 -8 -116 -22 -115 -44 -240 -54 -311 -6 -47 -6 -47 -53
-54 -134 -20 -206 -111 -201 -251 2 -41 -1 -77 -6 -82 -6 -5 -29 -14 -52 -21
-64 -18 -185 -104 -231 -163 -82 -108 -132 -251 -132 -378 0 -37 -7 -84 -15
-103 -19 -47 -19 -148 0 -195 21 -48 48 -77 112 -118 62 -40 129 -59 281 -79
313 -41 665 3 886 111 168 82 238 234 188 407 -11 40 -25 117 -30 172 -6 58
-22 135 -38 182 -27 81 -27 82 -8 110 49 73 59 164 25 232 -21 40 -82 87 -122
93 -23 3 -24 6 -22 68 3 63 35 279 53 350 l9 35 268 1 c194 0 301 5 388 17 65
9 126 17 133 17 12 0 13 -24 7 -147 -4 -81 -10 -167 -14 -191 -6 -42 -9 -45
-56 -64 -59 -23 -110 -69 -132 -118 -23 -51 -20 -136 5 -193 l22 -49 -21 -40
c-26 -51 -55 -164 -64 -253 -4 -38 -14 -82 -21 -97 -9 -17 -14 -61 -14 -118 0
-188 55 -226 474 -326 276 -66 750 -94 1000 -59 217 31 308 67 361 145 29 43
30 49 29 150 0 141 -26 321 -57 397 -56 138 -152 243 -275 300 -109 51 -193
66 -344 61 l-128 -5 0 36 c-1 50 -30 110 -74 148 -34 31 -50 37 -101 45 -17 3
-20 11 -20 56 1 28 2 151 3 271 l2 220 98 46 c283 135 542 330 737 554 48 56
89 101 92 101 2 0 21 -13 41 -30 47 -37 128 -74 212 -97 91 -24 308 -24 410 0
79 19 214 78 291 127 35 23 57 30 95 30 111 0 243 55 327 137 57 55 89 107
113 186 15 49 24 61 60 82 56 33 134 120 178 199 43 76 97 234 126 366 24 111
81 283 152 460 73 182 81 214 82 315 0 79 -3 98 -27 147 -45 92 -125 138 -242
138 -34 0 -82 -7 -105 -15 -23 -8 -46 -13 -50 -10 -4 2 -10 27 -14 54 -9 68
-60 164 -108 205 -145 124 -410 80 -492 -83 -35 -69 -49 -153 -42 -250 l6 -84
-52 6 c-122 11 -238 -24 -345 -105 l-62 -46 -5 41 c-2 23 -10 92 -16 152 -80
779 -521 1481 -1180 1879 -285 172 -585 275 -935 321 -101 13 -512 19 -605 8z
m655 -128 c836 -126 1520 -688 1826 -1502 49 -130 93 -295 120 -453 17 -99 22
-178 26 -381 l4 -257 -27 -6 c-14 -4 -28 -5 -31 -3 -2 3 8 7 22 11 23 6 25 10
25 66 0 33 -2 60 -4 60 -2 0 -16 -33 -31 -72 -22 -57 -36 -79 -65 -100 -60
-42 -97 -130 -111 -258 -19 -179 -22 -330 -9 -418 7 -46 14 -81 17 -79 6 7 71
197 67 197 -11 0 -19 -6 -16 -13 1 -5 -2 -6 -8 -2 -8 5 -8 11 0 20 15 18 4 36
-18 28 -13 -5 -14 -3 -5 7 8 9 7 25 -8 68 -10 30 -19 65 -18 76 0 12 6 1 13
-24 18 -62 44 -121 63 -142 14 -16 13 -24 -12 -95 -162 -457 -446 -828 -830
-1085 -363 -242 -750 -360 -1185 -360 -619 0 -1146 215 -1593 651 -221 215
-364 412 -498 686 -116 239 -185 455 -226 720 -25 156 -25 589 0 725 68 369
184 670 366 948 237 361 519 616 886 798 235 117 460 176 790 208 78 8 371 -4
470 -19z m-1435 -199 c0 -2 -25 -18 -56 -36 -31 -17 -90 -56 -132 -87 -428
-317 -731 -737 -893 -1238 -135 -416 -146 -966 -28 -1404 11 -40 18 -76 15
-78 -9 -9 -51 165 -77 317 -14 85 -28 228 -35 363 -12 228 34 555 112 801 14
44 23 88 21 98 -3 11 0 18 9 18 13 0 15 7 18 52 1 10 5 17 10 17 5 0 18 21 28
48 11 26 24 56 29 65 5 10 9 26 9 37 0 10 7 22 16 25 10 4 13 13 9 28 -4 16
-3 19 3 10 8 -11 10 -11 15 1 3 8 0 20 -6 26 -9 9 -8 11 3 6 11 -4 19 5 29 30
7 19 17 35 22 35 5 0 9 5 9 11 0 5 -6 7 -12 4 -7 -4 1 6 19 22 18 15 33 34 35
42 2 7 13 25 26 39 12 14 20 27 18 29 -2 2 7 15 20 28 15 15 22 31 18 42 -5
15 -4 16 5 3 6 -8 11 -10 11 -4 0 7 14 27 31 45 23 24 27 34 17 40 -11 7 -11
9 0 9 7 0 10 5 6 12 -4 7 -3 8 4 4 15 -9 64 35 57 52 -2 7 -1 11 4 8 9 -6 121
107 121 122 0 6 -6 13 -12 16 -7 3 -3 3 10 0 28 -7 92 48 71 61 -7 5 -15 1
-21 -9 -5 -9 -13 -16 -19 -16 -5 0 -1 10 10 21 11 12 31 22 46 22 14 0 28 4
32 10 4 6 1 7 -7 2 -7 -4 -16 -2 -20 6 -7 10 -17 6 -47 -16 -58 -44 -65 -52
-50 -58 6 -3 2 -6 -10 -6 -33 -1 -54 -12 -46 -24 3 -5 1 -7 -4 -4 -6 4 -17 -1
-24 -10 -10 -12 -10 -14 -1 -9 7 4 12 2 12 -4 0 -6 -10 -10 -22 -8 -15 2 -26
-4 -34 -20 -6 -13 -15 -24 -20 -25 -5 -1 -8 -6 -6 -10 1 -5 -2 -6 -7 -2 -16 9
-73 -49 -60 -62 7 -7 3 -10 -13 -9 -14 1 -22 -4 -20 -12 1 -8 -1 -11 -5 -9 -5
2 -17 -4 -27 -14 -12 -11 -14 -19 -7 -19 7 0 10 -4 6 -9 -3 -5 -1 -12 5 -16 5
-3 10 -1 10 5 0 6 5 8 10 5 6 -3 10 -10 10 -15 0 -14 -32 -5 -45 13 -14 20
-26 12 -18 -11 5 -11 3 -13 -7 -7 -10 6 -12 4 -6 -11 4 -10 4 -15 0 -12 -10
10 -46 -11 -39 -23 4 -5 1 -8 -6 -7 -7 2 -14 -4 -14 -12 0 -8 -6 -14 -13 -13
-16 4 -15 -9 1 -27 10 -12 9 -12 -4 -2 -14 11 -20 9 -38 -14 -11 -14 -18 -31
-14 -37 3 -6 1 -7 -5 -3 -7 4 -12 2 -12 -4 0 -6 -13 -25 -29 -43 -23 -23 -27
-34 -19 -44 8 -10 6 -13 -5 -13 -17 0 -90 -104 -90 -127 0 -7 -3 -13 -7 -13
-13 0 -61 -100 -54 -112 4 -6 3 -8 -3 -5 -10 6 -15 -2 -51 -83 -125 -284 -181
-516 -202 -840 -11 -164 -9 -262 11 -415 29 -232 96 -515 122 -515 4 0 5 6 1
13 -4 6 -4 9 0 5 4 -3 31 2 59 11 43 15 63 17 119 9 53 -8 67 -14 71 -30 5
-19 5 -19 -14 -2 -14 12 -41 19 -84 22 -52 3 -73 0 -117 -20 l-54 -25 -27 96
c-58 203 -81 333 -98 544 -22 275 15 609 99 878 177 566 543 1029 1040 1318
66 38 293 160 300 161 1 0 2 -2 2 -4z m-575 -414 c3 -9 -2 -23 -12 -31 -11
-10 -13 -11 -5 -1 16 19 15 33 -1 27 -8 -3 -14 0 -14 7 0 18 25 16 32 -2z
m-95 -102 c0 -5 -2 -10 -4 -10 -3 0 -8 5 -11 10 -3 6 -1 10 4 10 6 0 11 -4 11
-10z m-46 -19 c3 -5 0 -11 -7 -14 -8 -3 -14 1 -14 9 0 16 13 19 21 5z m-70
-96 c-4 -8 -11 -12 -17 -8 -8 5 -7 8 1 11 7 2 9 9 6 14 -4 7 -2 8 4 4 6 -4 9
-13 6 -21z m10 -33 c-8 -18 -18 -32 -20 -32 -3 0 -4 3 -2 8 20 41 32 61 35 59
2 -2 -4 -18 -13 -35z m-60 7 c-3 -6 0 -15 7 -20 10 -7 8 -8 -8 -6 -12 2 -26 7
-30 12 -5 4 -3 5 3 2 7 -4 14 0 18 8 3 8 8 15 11 15 4 0 3 -5 -1 -11z m-63
-76 c13 -16 12 -17 -3 -4 -10 7 -18 15 -18 17 0 8 8 3 21 -13z m-26 -13 c3 -5
1 -10 -4 -10 -6 0 -11 5 -11 10 0 6 2 10 4 10 3 0 8 -4 11 -10z m63 -17 c-2
-11 2 -17 10 -15 8 1 11 -2 7 -8 -5 -8 -11 -8 -19 -1 -7 6 -16 7 -21 3 -4 -4
-2 3 4 16 14 26 23 29 19 5z m-48 -13 c0 -5 -4 -10 -10 -10 -5 0 -10 5 -10 10
0 6 5 10 10 10 6 0 10 -4 10 -10z m-100 -220 c0 -5 -4 -10 -10 -10 -5 0 -10 5
-10 10 0 6 5 10 10 10 6 0 10 -4 10 -10z m-139 -107 c-12 -20 -14 -14 -5 12 4
9 9 14 11 11 3 -2 0 -13 -6 -23z m57 -150 c0 -21 -2 -23 -10 -9 -5 9 -6 21 -3
26 10 16 13 12 13 -17z m5 -48 c-3 -9 -8 -14 -10 -11 -3 3 -2 9 2 15 9 16 15
13 8 -4z m-128 -14 c3 -5 2 -12 -3 -15 -5 -3 -9 1 -9 9 0 17 3 19 12 6z m5568
-242 c110 -30 176 -179 148 -334 -6 -33 -41 -152 -78 -264 l-66 -204 -12 40
c-21 71 -76 160 -144 235 l-67 73 -18 104 c-11 63 -16 127 -13 162 5 59 35
137 50 131 4 -2 16 6 25 18 18 22 82 49 117 50 11 0 37 -5 58 -11z m504 -316
c71 -33 92 -148 52 -278 -11 -36 -49 -139 -83 -228 -68 -175 -111 -310 -151
-480 -41 -175 -130 -329 -228 -395 -148 -100 -421 -122 -568 -46 -48 24 -27
28 25 4 64 -29 117 -37 216 -34 100 4 212 23 204 35 -3 5 3 6 13 3 14 -5 13
-2 -4 13 l-23 18 24 1 c17 1 23 -2 19 -12 -3 -8 0 -14 6 -14 6 0 11 4 11 10 0
5 3 9 8 9 25 -4 34 1 23 15 -10 12 -8 17 8 25 13 7 22 8 26 1 12 -20 43 12 38
39 -4 24 -3 25 10 7 11 -15 16 -16 22 -6 5 8 4 11 -2 7 -6 -4 -14 0 -17 8 -4
13 -2 13 14 5 15 -8 22 -5 40 20 12 17 18 30 13 30 -4 0 -3 4 2 8 14 10 39 42
33 42 -3 0 -18 -12 -34 -26 -16 -14 -46 -37 -66 -51 -21 -14 -35 -30 -31 -36
3 -6 1 -7 -5 -3 -15 9 -55 -18 -44 -29 4 -5 2 -5 -4 -2 -7 4 -41 -7 -76 -23
-123 -58 -290 -74 -418 -40 -110 29 -284 97 -347 136 -156 97 -243 250 -243
429 0 101 33 168 95 196 115 51 214 -39 215 -197 0 -60 3 -73 23 -91 41 -38
77 -56 155 -77 65 -18 80 -27 99 -55 13 -19 23 -47 23 -62 0 -16 5 -29 10 -29
17 0 11 97 -10 152 l-19 52 50 53 c97 102 116 206 58 321 -57 114 -115 130
-201 56 -60 -52 -117 -84 -148 -84 -31 0 -74 25 -105 62 -62 73 -8 212 119
305 109 81 244 95 356 38 72 -36 176 -143 219 -225 29 -53 35 -78 40 -149 l6
-85 32 -7 c18 -3 44 -14 58 -23 32 -21 35 -1 4 37 l-20 27 37 107 c58 169 121
321 160 384 76 126 186 178 281 132z m-935 -658 c16 -35 -2 -87 -50 -150 -31
-41 -44 -51 -73 -53 l-35 -3 -17 77 c-9 43 -15 80 -12 82 3 3 28 13 56 23 29
10 61 25 73 33 30 22 45 19 58 -9z m-4984 -400 c0 -5 -6 4 -13 20 -8 17 -14
37 -14 45 0 8 7 -1 14 -20 7 -19 13 -39 13 -45z m-48 -130 c78 -40 113 -152
72 -231 -11 -21 -51 -69 -89 -106 l-68 -68 3 60 c3 54 6 60 25 60 20 -1 20 -2
5 -11 -21 -12 -24 -49 -5 -49 17 0 49 34 42 43 -3 4 -2 5 1 2 12 -8 82 77 88
108 9 45 7 87 -4 87 -6 0 -9 3 -9 8 4 26 -1 34 -15 22 -13 -10 -14 -7 -10 15
3 19 1 24 -7 19 -7 -4 -9 -3 -5 4 3 6 2 13 -3 16 -15 9 -24 -13 -12 -28 8 -9
7 -13 -4 -13 -8 0 -13 2 -10 5 2 3 0 14 -6 25 -8 14 -8 18 0 13 6 -4 11 -2 11
3 0 12 -51 14 -87 5 -15 -4 -22 -13 -20 -26 1 -12 -5 -23 -13 -25 -13 -4 -13
-3 0 6 12 9 11 11 -7 11 -26 0 -41 -19 -23 -30 8 -5 7 -9 -6 -14 -10 -4 -21
-1 -26 6 -6 10 -8 10 -8 -1 0 -8 -6 -11 -17 -6 -10 3 1 -10 24 -30 60 -51 85
-111 89 -213 3 -79 2 -85 -30 -135 -84 -132 -138 -276 -158 -429 -13 -90 -13
-91 -48 -106 -48 -20 -173 -25 -245 -10 l-60 13 -8 45 c-14 82 23 340 45 309
7 -10 8 -8 3 8 -13 47 121 296 230 423 84 100 264 230 318 230 10 0 31 -7 47
-15z m-40 -36 c0 -5 -4 -9 -10 -9 -5 0 -10 7 -10 16 0 8 5 12 10 9 6 -3 10
-10 10 -16z m4533 -106 c-3 -43 -10 -86 -15 -95 -11 -22 -68 -25 -68 -5 0 14
79 177 85 177 2 0 1 -35 -2 -77z m-4573 35 c0 -27 -34 -19 -38 9 -3 17 1 20
17 16 12 -3 21 -14 21 -25z m84 20 c-3 -5 -9 -6 -14 -3 -4 3 -10 -1 -13 -7 -2
-7 -8 -9 -13 -5 -5 4 -3 12 4 16 17 10 42 10 36 -1z m53 -18 c1 -11 -2 -20 -8
-20 -10 0 -12 23 -2 33 9 9 9 10 10 -13z m-207 0 c0 5 5 10 12 10 8 0 6 -6 -5
-17 -16 -16 -18 -16 -34 1 -17 18 -17 18 5 7 14 -8 22 -8 22 -1z m170 -10 c0
-5 -4 -10 -10 -10 -5 0 -10 5 -10 10 0 6 5 10 10 10 6 0 10 -4 10 -10z m-156
-22 c-5 -7 -2 -9 9 -5 12 4 14 2 10 -10 -4 -11 -2 -14 5 -9 8 5 12 0 12 -14 0
-20 -2 -19 -24 7 -21 24 -25 43 -10 43 3 0 2 -5 -2 -12z m5699 -5 c-7 -2 -19
-2 -25 0 -7 3 -2 5 12 5 14 0 19 -2 13 -5z m-5603 -13 c0 -5 -9 -10 -20 -10
-11 0 -20 5 -20 10 0 6 9 10 20 10 11 0 20 -4 20 -10z m4668 -63 c10 -12 19
-14 26 -7 5 5 14 10 19 10 5 0 2 -7 -7 -15 -18 -18 -43 -19 -49 -2 -3 6 -6 2
-6 -10 -1 -18 5 -23 24 -23 14 0 25 -4 25 -10 0 -5 -9 -10 -21 -10 -18 0 -20
-4 -14 -27 10 -42 26 -58 38 -38 5 9 6 19 3 22 -3 4 -6 0 -6 -8 0 -11 -2 -11
-10 1 -12 19 -13 33 0 25 5 -3 15 6 23 20 13 26 13 25 13 -22 -1 -40 2 -48 18
-48 11 0 21 -7 23 -15 4 -13 3 -13 -6 0 -5 8 -13 11 -17 7 -4 -3 -1 -15 7 -24
12 -16 12 -17 -2 -6 -9 7 -20 9 -24 5 -5 -4 -5 1 -2 11 4 11 3 16 -4 12 -14
-9 -6 -30 12 -30 8 -1 13 -7 11 -14 -1 -7 2 -10 8 -6 6 4 17 2 25 -5 9 -7 15
-8 20 0 3 5 -2 10 -12 11 -11 0 -13 3 -5 6 6 2 10 9 6 14 -12 21 5 7 19 -15
15 -22 15 -25 0 -38 -14 -11 -16 -11 -8 1 5 10 4 12 -4 7 -9 -6 -9 -11 0 -22
10 -12 14 -12 20 -2 7 10 9 8 9 -5 0 -11 4 -15 12 -11 6 4 8 3 5 -3 -4 -7 7
-16 26 -22 l32 -11 -22 19 c-20 16 -20 20 -7 25 13 5 14 9 4 21 -15 18 -31 20
-26 3 1 -7 1 -10 -1 -6 -3 4 -4 10 -3 13 0 3 -17 29 -39 57 -40 49 -57 94 -27
69 10 -8 21 -7 46 5 23 12 46 15 81 11 31 -4 47 -2 44 3 -4 6 -15 10 -26 10
-12 0 -19 5 -16 13 2 6 -12 20 -31 29 -31 16 -38 16 -71 3 l-36 -15 25 20 25
20 -25 0 c-14 1 -43 8 -65 16 -22 9 -46 16 -53 16 -7 1 -9 5 -4 10 5 5 29 0
56 -12 26 -11 61 -20 77 -20 17 0 44 -7 62 -16 41 -21 103 -75 99 -87 -1 -5 2
-6 8 -2 6 4 16 2 23 -3 7 -5 46 -22 87 -38 69 -26 86 -28 215 -28 88 0 151 5
169 12 16 7 31 10 34 8 24 -24 -109 -166 -194 -206 -66 -31 -204 -39 -291 -16
-102 26 -262 114 -248 137 3 5 0 6 -8 3 -16 -6 -74 59 -99 111 -22 43 -30 99
-21 143 6 31 8 33 11 12 2 -14 11 -33 20 -43z m753 -6 c-12 -8 -12 -10 0 -14
8 -2 5 -3 -6 -1 -11 2 -31 4 -45 5 -20 1 -18 3 10 9 50 11 57 11 41 1z m39 -1
c0 -5 -2 -10 -4 -10 -3 0 -8 5 -11 10 -3 6 -1 10 4 10 6 0 11 -4 11 -10z
m-110 -20 c13 -8 13 -10 -2 -10 -9 0 -20 5 -23 10 -8 13 5 13 25 0z m-5383
-22 c-3 -8 -6 -5 -6 6 -1 11 2 17 5 13 3 -3 4 -12 1 -19z m4854 13 c-17 -11 1
-23 23 -15 9 3 16 1 16 -5 0 -6 -7 -11 -15 -11 -9 0 -28 -8 -43 -17 -22 -15
-25 -15 -15 -2 7 9 10 19 6 22 -3 4 -1 7 5 7 7 0 11 3 11 8 -3 15 1 22 14 22
9 0 8 -3 -2 -9z m-74 -56 c0 -8 -4 -15 -9 -15 -10 0 -11 14 -1 23 9 10 10 9
10 -8z m-187 -22 c0 -10 11 -38 25 -62 29 -51 31 -58 8 -40 -11 10 -14 10 -9
2 4 -8 1 -13 -8 -13 -12 0 -16 -10 -16 -34 0 -19 4 -38 10 -41 5 -3 8 -20 6
-38 -3 -24 3 -40 25 -64 16 -19 36 -48 44 -66 9 -19 11 -25 3 -16 -9 11 -38
17 -103 22 -49 3 -110 13 -134 21 -50 18 -54 19 -47 8 3 -5 -2 -9 -10 -9 -10
0 -11 4 -4 11 5 5 10 16 10 24 0 8 18 49 39 92 26 52 36 81 29 88 -7 7 -3 14
11 21 15 8 21 9 21 1 0 -6 5 -8 12 -4 7 4 8 3 4 -5 -4 -6 -11 -9 -16 -6 -5 3
-11 1 -15 -5 -3 -5 0 -10 8 -10 7 0 35 -27 61 -61 26 -33 50 -59 53 -56 3 3 1
12 -3 19 -5 7 -9 18 -10 23 0 6 -2 16 -2 23 -1 7 -7 10 -12 7 -6 -4 -7 -11 -4
-17 4 -7 2 -8 -4 -4 -15 9 -16 36 -2 36 6 0 10 9 10 20 0 11 3 20 8 20 4 0 13
9 20 20 10 16 10 20 0 18 -7 -2 -13 6 -14 17 -2 41 -4 45 -24 45 -17 0 -19 -4
-14 -27 6 -23 5 -26 -7 -17 -14 11 -105 44 -122 44 -5 0 -7 -7 -3 -15 3 -8 0
-14 -6 -12 -6 1 -13 -4 -16 -12 -3 -9 0 -11 8 -6 9 5 11 4 6 -4 -4 -6 -12 -9
-17 -5 -5 3 -8 2 -7 -3 1 -4 -3 -18 -10 -30 -7 -13 -10 -23 -6 -23 4 0 -1 -10
-12 -22 -17 -19 -17 -21 -1 -15 11 4 17 2 17 -7 0 -8 10 -12 26 -10 19 2 24
-1 20 -13 -3 -8 -6 -19 -6 -24 0 -5 -10 -4 -22 2 -13 7 -25 12 -28 11 -3 -1
-5 4 -5 11 0 15 -16 27 -27 21 -13 -8 -9 -21 9 -40 13 -13 14 -19 5 -22 -7 -2
-9 -8 -6 -13 3 -6 12 -5 21 3 15 12 15 11 2 -9 -16 -27 -29 -30 -29 -7 0 8 -5
12 -10 9 -6 -4 -17 -1 -25 5 -12 10 -16 8 -24 -12 -5 -13 -16 -30 -25 -37 -23
-20 -20 -34 13 -54 37 -22 41 -21 36 3 -5 24 11 36 19 14 4 -10 12 -14 22 -10
22 8 43 -10 37 -33 -3 -14 4 -21 28 -30 42 -14 92 -14 107 1 9 9 16 6 30 -10
22 -26 48 -27 170 -9 46 7 80 16 75 21 -4 5 2 6 13 2 29 -9 76 13 71 33 -2 9
-10 15 -18 13 -8 -2 -11 0 -7 4 4 4 3 13 -3 21 -6 7 -9 13 -5 13 3 0 9 0 14 0
4 0 7 -3 7 -7 0 -5 10 -18 22 -30 21 -21 53 -22 53 -1 0 5 5 6 12 2 7 -5 8 -3
4 5 -5 7 -14 10 -22 7 -8 -3 -14 -1 -14 5 0 6 -10 8 -22 5 -13 -3 -17 -3 -10
0 9 4 5 11 -14 20 -19 10 -31 11 -38 4 -5 -5 -15 -10 -20 -10 -6 0 -3 5 7 11
9 6 14 15 11 21 -8 13 -8 13 93 -33 l73 -32 -53 -24 c-105 -49 -192 -67 -332
-67 -154 -1 -245 18 -332 71 -32 19 -59 36 -61 38 -2 2 25 48 61 102 36 54 81
127 100 163 27 48 41 64 54 62 66 -13 93 -13 119 2 38 20 44 20 44 -1z m-120
-43 c0 -5 -4 -10 -10 -10 -5 0 -10 5 -10 10 0 6 5 10 10 10 6 0 10 -4 10 -10z
m-47 -101 c-5 -5 -8 3 -7 19 2 43 7 50 11 18 3 -16 1 -32 -4 -37z m121 36 c-4
-8 -10 -12 -15 -9 -5 3 -9 0 -9 -7 0 -7 -2 -10 -5 -7 -9 9 7 38 21 38 8 0 11
-6 8 -15z m127 -36 c10 -15 47 -48 81 -74 34 -26 63 -53 64 -61 3 -21 -17 -17
-23 5 -3 12 -15 21 -32 23 -14 2 -26 8 -26 14 0 6 -8 18 -17 28 -10 10 -18 14
-18 9 0 -5 5 -14 10 -19 7 -7 6 -11 -6 -11 -11 0 -14 7 -11 23 5 26 -22 57
-44 51 -8 -2 -11 -2 -6 0 15 9 6 22 -12 18 -13 -2 -18 1 -15 9 8 21 34 14 55
-15z m59 -120 c0 -23 -16 -42 -45 -52 -18 -6 -18 -5 3 12 12 11 22 29 22 40 0
12 5 21 10 21 6 0 10 -9 10 -21z m-340 4 c0 -5 -5 -15 -10 -23 -7 -12 -9 -10
-7 8 1 19 17 33 17 15z m264 -4 c-2 -4 0 -10 6 -14 5 -3 10 -10 10 -16 0 -5
-9 0 -20 11 -24 24 -24 27 -5 27 8 0 12 -4 9 -8z m33 -4 c0 -8 -4 -12 -9 -9
-5 3 -6 10 -3 15 9 13 12 11 12 -6z m-406 -22 c-12 -20 -14 -14 -5 12 4 9 9
14 11 11 3 -2 0 -13 -6 -23z m509 -13 c0 -5 -5 -10 -11 -10 -6 0 -9 -7 -6 -14
4 -10 1 -13 -9 -9 -17 6 -17 10 -1 28 14 17 27 19 27 5z m16 -47 c-13 -3 -15
-7 -7 -12 7 -4 -2 -8 -19 -8 -35 0 -40 14 -7 20 30 6 56 6 33 0z m-233 -13
c28 0 46 -3 43 -9 -8 -12 -131 -5 -154 9 -13 9 -8 10 23 5 22 -4 62 -6 88 -5z
m82 -10 c3 -5 1 -10 -5 -10 -7 0 -10 -6 -7 -12 6 -16 -52 -22 -85 -9 -21 9
-19 10 14 10 44 1 70 10 62 22 -3 5 -1 9 5 9 5 0 13 -4 16 -10z m-4688 -229
c50 -26 68 -132 34 -200 -48 -94 -170 -151 -366 -173 -265 -30 -445 55 -445
210 0 66 68 142 128 142 19 0 22 -5 22 -40 0 -59 29 -84 116 -100 155 -30 314
-10 384 49 24 20 33 36 36 71 8 69 9 70 42 61 16 -5 38 -14 49 -20z m167 -344
c61 -62 113 -147 136 -222 7 -22 35 -89 62 -149 56 -122 65 -183 34 -230 -37
-57 -115 -81 -181 -56 -41 16 -66 84 -71 198 -3 54 -7 108 -10 121 -5 22 -6
22 -24 6 -36 -32 -52 -107 -48 -218 3 -99 5 -106 53 -207 59 -124 64 -173 25
-215 -30 -32 -78 -55 -118 -55 -43 0 -128 47 -168 93 -50 58 -98 160 -114 245
-19 103 -35 88 -35 -35 0 -97 1 -102 42 -184 46 -93 45 -99 -23 -99 -144 0
-282 143 -317 330 -16 85 -32 69 -32 -32 0 -74 4 -92 31 -147 l31 -63 -35 7
c-44 8 -113 55 -142 95 -31 43 -76 147 -88 205 -39 177 -12 426 59 542 l20 32
62 -29 c200 -93 576 -45 732 94 22 19 44 35 49 36 4 0 36 -28 70 -63z m1417
-155 c46 -16 108 -35 137 -42 30 -7 56 -18 58 -25 3 -7 -4 -63 -14 -126 -11
-63 -32 -207 -48 -321 l-29 -208 -102 0 c-56 0 -136 5 -178 11 l-75 11 6 52
c19 165 100 589 123 649 6 15 17 27 24 27 7 0 51 -13 98 -28z m1559 -237 c0
-88 -3 -217 -7 -286 l-6 -126 -66 -13 c-36 -7 -117 -15 -179 -17 l-113 -6 7
104 c3 57 11 182 18 278 l11 175 100 18 c55 9 127 26 160 36 41 13 62 15 67 8
4 -6 8 -83 8 -171z m-1207 148 c-7 -2 -19 -2 -25 0 -7 3 -2 5 12 5 14 0 19 -2
13 -5z m70 -10 c-7 -2 -21 -2 -30 0 -10 3 -4 5 12 5 17 0 24 -2 18 -5z m1313
-587 c28 -28 34 -41 34 -78 0 -24 -6 -51 -12 -60 -7 -9 -49 -34 -92 -55 -79
-38 -181 -117 -171 -134 3 -4 13 -5 21 -2 14 5 14 3 0 -25 -28 -54 -18 -55 37
-6 157 144 486 210 688 139 186 -66 318 -257 307 -446 -3 -48 -7 -56 -36 -75
-34 -23 -84 -37 -212 -57 -125 -19 -689 -15 -840 6 -146 21 -323 59 -433 93
-104 33 -113 48 -98 152 13 90 45 193 69 222 l17 21 50 -22 c38 -17 70 -23
135 -23 146 -2 194 26 65 37 -177 15 -295 98 -295 207 0 47 18 80 59 107 47
32 61 30 61 -10 0 -60 25 -71 159 -75 199 -6 391 40 399 96 5 34 47 29 88 -12z
m-2096 -17 c0 -70 47 -88 283 -109 159 -14 241 -3 275 36 21 24 25 25 53 14
37 -16 59 -56 59 -107 0 -63 -29 -97 -119 -139 -44 -21 -77 -42 -74 -47 3 -5
33 -7 66 -5 59 3 62 2 76 -27 23 -48 51 -165 57 -246 12 -138 -39 -198 -211
-252 -138 -43 -256 -59 -482 -64 -302 -8 -478 17 -522 74 -27 33 -28 104 -2
205 47 182 141 289 307 349 82 30 279 33 374 5 96 -28 218 -94 278 -150 29
-27 55 -46 59 -42 14 13 -32 78 -100 143 -112 105 -244 155 -397 152 -47 -1
-90 -1 -96 0 -20 2 -37 59 -31 107 8 73 56 124 120 124 21 0 27 -5 27 -21z
m1347 -733 c79 -34 269 -79 453 -108 129 -20 180 -23 455 -23 331 0 409 7 574
51 51 14 96 22 100 19 3 -4 6 -31 6 -60 0 -92 -57 -140 -206 -171 -102 -21
-527 -30 -686 -15 -239 24 -539 86 -685 141 -71 26 -108 67 -108 118 0 51 10
84 24 78 6 -3 39 -16 73 -30z m-639 -157 c-8 -112 -89 -181 -273 -234 -130
-37 -250 -55 -425 -62 -154 -6 -325 6 -420 29 -131 32 -202 106 -186 192 l6
33 48 -24 c96 -47 175 -57 467 -57 297 -1 376 9 549 64 86 28 174 77 205 114
23 27 33 7 29 -55z"/>
<path d="M4869 8960 c-881 -103 -1548 -763 -1680 -1660 -18 -124 -16 -452 5
-580 69 -432 277 -828 591 -1128 505 -481 1217 -652 1847 -442 134 45 326 140
453 225 443 296 737 760 821 1295 21 133 24 441 5 565 -55 376 -200 724 -422
1017 -80 105 -241 266 -344 345 -212 161 -485 287 -725 337 -168 34 -389 45
-551 26z m84 -97 c-7 -2 -21 -2 -30 0 -10 3 -4 5 12 5 17 0 24 -2 18 -5z m115
0 c-16 -2 -40 -2 -55 0 -16 2 -3 4 27 4 30 0 43 -2 28 -4z m242 -48 c332 -74
674 -265 901 -502 183 -192 320 -404 413 -642 250 -636 195 -1330 -143 -1805
-73 -103 -234 -272 -336 -351 -255 -199 -524 -317 -830 -366 -121 -20 -389
-17 -515 5 -584 101 -1085 479 -1360 1026 -204 405 -251 890 -130 1345 117
443 386 820 758 1062 182 119 412 201 677 242 97 15 477 6 565 -14z m217 -21
c-3 -3 -12 -4 -19 -1 -8 3 -5 6 6 6 11 1 17 -2 13 -5z m68 -24 c3 -6 -1 -7 -9
-4 -18 7 -21 14 -7 14 6 0 13 -4 16 -10z m220 -98 c-3 -3 -11 0 -18 7 -9 10
-8 11 6 5 10 -3 15 -9 12 -12z m55 -28 c0 -2 -9 0 -20 6 -11 6 -20 13 -20 16
0 2 9 0 20 -6 11 -6 20 -13 20 -16z m246 -165 c19 -22 19 -22 -3 -8 -13 8 -23
17 -23 21 0 12 6 9 26 -13z m60 -51 c29 -31 29 -31 2 -12 -15 10 -29 25 -32
32 -8 18 -2 15 30 -20z m74 -73 c19 -19 32 -35 29 -35 -3 0 -20 16 -39 35 -19
19 -32 35 -29 35 3 0 20 -16 39 -35z m130 -146 c15 -28 5 -23 -15 7 -9 15 -12
23 -6 20 6 -4 16 -16 21 -27z m95 -128 c3 -5 2 -12 -3 -15 -5 -3 -9 1 -9 9 0
17 3 19 12 6z m125 -216 c0 -5 -5 -3 -10 5 -5 8 -10 20 -10 25 0 6 5 3 10 -5
5 -8 10 -19 10 -25z m58 -120 c-3 -3 -9 2 -12 12 -6 14 -5 15 5 6 7 -7 10 -15
7 -18z m99 -307 c-3 -8 -6 -5 -6 6 -1 11 2 17 5 13 3 -3 4 -12 1 -19z m10 -40
c-3 -8 -6 -5 -6 6 -1 11 2 17 5 13 3 -3 4 -12 1 -19z m20 -90 c-3 -8 -6 -5 -6
6 -1 11 2 17 5 13 3 -3 4 -12 1 -19z m10 -55 c-3 -10 -5 -4 -5 12 0 17 2 24 5
18 2 -7 2 -21 0 -30z m20 -240 c-2 -21 -4 -4 -4 37 0 41 2 58 4 38 2 -21 2
-55 0 -75z m0 -100 c-3 -10 -5 -2 -5 17 0 19 2 27 5 18 2 -10 2 -26 0 -35z m0
-110 c-2 -16 -4 -3 -4 27 0 30 2 43 4 28 2 -16 2 -40 0 -55z m-10 -105 c-3 -8
-6 -5 -6 6 -1 11 2 17 5 13 3 -3 4 -12 1 -19z m-10 -50 c-3 -8 -6 -5 -6 6 -1
11 2 17 5 13 3 -3 4 -12 1 -19z m-30 -170 c-3 -8 -6 -5 -6 6 -1 11 2 17 5 13
3 -3 4 -12 1 -19z m-10 -40 c-3 -8 -6 -5 -6 6 -1 11 2 17 5 13 3 -3 4 -12 1
-19z m-13 -52 c-3 -15 -8 -25 -11 -23 -2 3 -1 17 3 31 3 15 8 25 11 23 2 -3 1
-17 -3 -31z"/>
<path d="M4843 8631 c-49 -31 -62 -65 -64 -174 -1 -58 -6 -100 -13 -105 -6 -5
-55 -28 -108 -52 -279 -121 -439 -328 -442 -572 l-1 -78 -35 0 c-51 0 -146
-27 -200 -56 -62 -34 -153 -125 -196 -196 -75 -123 -113 -302 -94 -439 13 -95
43 -189 83 -259 39 -70 147 -177 213 -212 188 -100 399 -67 542 87 89 94 151
244 152 363 0 37 12 56 22 34 8 -19 73 -54 179 -97 260 -106 364 -167 416
-246 21 -32 26 -52 26 -97 0 -31 -3 -68 -8 -81 l-7 -24 35 27 c100 76 75 233
-55 350 -64 58 -183 122 -298 159 -99 32 -119 42 -222 101 -79 46 -88 54 -94
86 -34 202 -153 385 -295 454 -54 26 -56 29 -69 83 -39 162 74 368 266 481 64
38 232 102 268 102 8 0 23 11 32 25 14 22 16 45 12 145 -3 65 -2 124 2 131 11
16 213 3 261 -17 50 -21 59 -48 59 -164 0 -126 8 -137 135 -175 176 -52 285
-118 301 -180 6 -23 -81 -210 -114 -248 -22 -25 -59 -15 -154 39 -125 71 -171
86 -284 92 -94 4 -105 3 -163 -23 -104 -47 -151 -118 -151 -227 0 -77 23 -131
79 -187 49 -49 105 -78 315 -161 166 -66 219 -96 311 -177 52 -45 55 -51 55
-95 0 -135 66 -315 149 -410 79 -90 216 -158 314 -158 190 1 355 146 427 375
30 96 38 281 16 385 -37 178 -157 341 -301 410 -62 30 -80 34 -155 34 -77 0
-92 -3 -155 -33 -85 -42 -168 -122 -212 -206 -32 -61 -73 -191 -73 -232 0 -13
-2 -23 -5 -23 -3 0 -35 23 -71 50 -80 61 -124 84 -289 150 -175 70 -235 102
-277 148 -44 48 -62 100 -55 159 9 86 68 118 204 111 82 -4 91 -7 217 -72 72
-36 143 -66 157 -66 48 0 125 29 152 57 14 16 47 69 73 118 25 50 53 98 61
107 12 13 14 30 8 74 -6 47 -13 64 -46 99 -49 53 -142 102 -274 145 -55 18
-106 37 -112 43 -9 6 -13 42 -13 111 0 179 -34 205 -295 221 -99 5 -113 4
-142 -14z m-46 -138 c-3 -10 -5 -4 -5 12 0 17 2 24 5 18 2 -7 2 -21 0 -30z
m271 -660 c-10 -2 -28 -2 -40 0 -13 2 -5 4 17 4 22 1 32 -1 23 -4z m1035 -287
c78 -38 178 -146 223 -239 80 -170 66 -397 -34 -553 -73 -113 -185 -184 -290
-184 l-47 0 50 24 c60 28 143 114 179 184 147 290 -11 672 -277 672 -78 0
-133 -26 -192 -92 -30 -34 -51 -70 -64 -112 -24 -74 -28 -38 -6 47 36 139 123
238 245 278 48 16 156 3 213 -25z m-1782 -29 c77 -38 141 -97 198 -183 69
-103 86 -162 86 -304 -1 -90 -5 -130 -22 -185 -40 -129 -134 -244 -241 -296
-37 -18 -67 -24 -137 -26 -74 -2 -84 0 -55 8 190 55 310 228 310 445 0 167
-92 332 -225 402 -70 37 -188 38 -258 2 -89 -45 -174 -166 -196 -281 l-9 -44
-1 36 c-4 134 85 315 192 391 16 12 55 32 86 45 78 33 194 29 272 -10z m1746
-189 c7 -6 18 -28 23 -49 17 -61 -15 -109 -72 -109 -30 0 -78 53 -78 87 0 70
75 112 127 71z m-1763 -67 c8 -9 18 -35 22 -58 6 -36 3 -45 -20 -68 -22 -22
-33 -26 -59 -21 -36 7 -77 48 -77 77 0 31 29 79 52 88 28 10 63 3 82 -18z"/>
<path d="M4581 6454 c-11 -14 -23 -40 -26 -58 -9 -43 10 -152 41 -238 91 -256
277 -399 518 -399 107 0 176 21 265 79 174 115 341 487 264 590 -37 49 -60 49
-133 0 -222 -149 -563 -141 -788 19 -60 42 -111 45 -141 7z m484 -374 c122
-17 265 -103 265 -160 0 -44 -169 -89 -267 -70 -105 19 -253 106 -253 149 0
31 56 69 120 82 50 10 57 10 135 -1z"/>
<path d="M4925 6063 c-11 -2 -27 -7 -35 -10 -8 -4 -18 -7 -22 -7 -15 -2 -19
-16 -9 -35 8 -13 8 -22 1 -26 -6 -4 -7 -11 -4 -17 5 -7 2 -8 -6 -3 -9 5 -11 4
-6 -3 4 -7 19 -10 34 -7 15 3 21 2 15 -1 -23 -10 14 -37 42 -30 14 4 27 1 31
-6 5 -8 2 -9 -9 -5 -10 4 -17 2 -17 -4 0 -7 11 -9 24 -7 16 3 23 1 19 -7 -5
-16 38 -26 140 -32 51 -3 77 -1 77 6 0 6 16 11 35 11 22 0 42 8 56 23 12 12
18 16 14 8 -5 -9 -4 -12 3 -7 13 8 17 37 5 35 -19 -3 -33 2 -33 12 0 5 6 7 13
3 6 -4 -4 7 -23 23 -19 17 -41 28 -49 25 -10 -4 -12 -1 -6 8 5 9 4 11 -3 6 -7
-4 -12 -2 -12 4 0 7 -7 9 -16 6 -8 -3 -12 -2 -9 4 15 25 -174 50 -250 33z
m160 -21 c-3 -3 -11 0 -18 7 -9 10 -8 11 6 5 10 -3 15 -9 12 -12z m-167 1
c-10 -2 -18 -8 -18 -12 0 -4 -7 -8 -16 -8 -14 0 -14 2 2 14 10 7 25 12 33 12
13 -1 12 -2 -1 -6z m42 -13 c0 -5 -8 -10 -17 -10 -15 0 -16 2 -3 10 19 12 20
12 20 0z m200 0 c0 -5 -9 -10 -20 -10 -11 0 -20 5 -20 10 0 6 9 10 20 10 11 0
20 -4 20 -10z m-240 -20 c0 -5 -10 -10 -22 -10 -19 0 -20 2 -8 10 19 13 30 13
30 0z m284 -25 c3 -9 0 -12 -9 -9 -7 3 -16 12 -19 19 -3 9 0 12 9 9 7 -3 16
-12 19 -19z m-244 -17 c0 -5 -4 -8 -10 -8 -5 0 -10 10 -10 23 0 18 2 19 10 7
5 -8 10 -18 10 -22z m187 17 c8 -9 13 -19 10 -22 -6 -5 -37 21 -37 31 0 10 11
6 27 -9z m93 -15 c0 -5 -5 -10 -11 -10 -5 0 -7 5 -4 10 3 6 8 10 11 10 2 0 4
-4 4 -10z m30 -10 c0 -5 -2 -10 -4 -10 -3 0 -8 5 -11 10 -3 6 -1 10 4 10 6 0
11 -4 11 -10z m-63 -34 c0 -8 -6 -12 -14 -9 -7 3 -13 9 -13 14 0 5 6 9 13 9 8
0 14 -6 14 -14z m-157 -26 c6 0 9 4 6 8 -3 5 15 8 39 8 51 -1 62 -16 13 -16
-18 0 -42 -3 -53 -6 -11 -3 -29 2 -40 11 -20 16 -20 16 2 6 12 -6 27 -11 33
-11z m209 11 c10 -7 7 -9 -12 -8 -15 1 -27 5 -27 10 0 10 22 9 39 -2z"/>
<path d="M4827 6013 c-4 -3 -7 -12 -7 -20 0 -15 26 -18 34 -4 7 11 -18 33 -27
24z"/>
<path d="M3595 9018 c-22 -18 -42 -32 -45 -30 -3 1 -12 -3 -21 -10 -8 -7 -22
-14 -30 -16 -8 -2 -15 -8 -17 -13 -2 -5 -10 -9 -18 -9 -9 0 -13 -4 -10 -9 11
-17 42 -5 90 34 80 66 101 84 96 85 -3 0 -23 -15 -45 -32z"/>
<path d="M7992 7527 c-20 -24 -33 -110 -27 -177 4 -35 10 -67 13 -70 7 -5 12
-46 12 -99 0 -13 11 -35 25 -49 30 -30 30 -30 6 66 -26 99 -36 234 -22 292 11
49 9 57 -7 37z"/>
<path d="M8260 5930 c-12 -8 -10 -10 8 -10 13 0 20 4 17 10 -7 12 -6 12 -25 0z"/>
<path d="M2121 5377 c-6 -35 -11 -107 -11 -159 0 -79 3 -97 16 -102 12 -5 15
-2 10 11 -14 37 -18 172 -7 237 7 38 10 70 8 73 -3 2 -10 -25 -16 -60z"/>
<path d="M8170 5723 c0 -5 -13 -8 -29 -5 -26 4 -32 -1 -49 -34 -25 -50 -46
-68 -107 -96 -69 -31 -204 -31 -290 0 -68 25 -68 25 -60 12 3 -5 1 -10 -5 -10
-7 0 -10 7 -6 15 3 9 -3 19 -15 25 -21 12 -43 5 -33 -11 3 -5 9 -7 14 -4 5 3
7 -3 5 -14 -3 -15 8 -24 52 -42 30 -12 68 -22 84 -23 16 -1 29 -5 29 -10 0
-15 173 0 205 18 26 15 27 17 6 12 -29 -6 -15 9 18 19 20 6 23 4 18 -9 -5 -14
-3 -15 13 -6 11 6 17 16 14 25 -6 14 5 20 35 16 8 -2 10 2 5 10 -5 9 -2 10 9
6 10 -4 16 -2 14 5 -1 7 4 13 11 14 25 3 27 5 13 13 -10 7 -19 4 -28 -7 -12
-15 -12 -13 -1 8 7 14 12 28 13 32 0 3 4 10 9 15 5 5 6 3 2 -4 -4 -8 -1 -13 9
-13 10 0 13 5 9 13 -6 9 -5 9 7 0 12 -10 17 -8 28 8 7 12 10 24 7 27 -3 3 -6
1 -6 -5z m-460 -157 c0 -11 -19 -15 -25 -6 -3 5 1 10 9 10 9 0 16 -2 16 -4z
m85 -16 c18 -8 18 -9 -5 -9 -14 0 -34 4 -45 9 -18 8 -18 9 5 9 14 0 34 -4 45
-9z m139 2 c3 -5 0 -9 -7 -10 -73 -8 -108 -9 -103 -4 4 3 28 9 54 13 26 3 48
7 49 8 1 0 4 -3 7 -7z"/>
<path d="M8118 5663 c7 -3 16 -2 19 1 4 3 -2 6 -13 5 -11 0 -14 -3 -6 -6z"/>
<path d="M7180 5746 c0 -2 7 -7 16 -10 8 -3 12 -2 9 4 -6 10 -25 14 -25 6z"/>
<path d="M7050 5580 c0 -5 5 -10 10 -10 6 0 10 5 10 10 0 6 -4 10 -10 10 -5 0
-10 -4 -10 -10z"/>
<path d="M6970 5565 c-18 -22 4 -46 23 -26 10 11 9 14 -1 18 -6 3 -10 9 -6 14
9 15 -2 10 -16 -6z"/>
<path d="M6980 5420 c8 -5 9 -9 1 -11 -5 -2 1 -9 14 -16 14 -6 23 -7 20 -3 -3
5 3 13 12 19 21 12 20 12 -26 16 -19 2 -28 -1 -21 -5z"/>
<path d="M4112 4673 c-16 -32 -22 -83 -10 -83 7 0 5 -5 -4 -12 -24 -20 -47
-158 -35 -213 3 -16 4 -24 1 -17 -3 6 -10 12 -15 12 -13 0 -11 -48 3 -52 7 -3
8 -10 4 -17 -7 -10 -10 -10 -16 -1 -8 13 -37 -137 -45 -232 -3 -42 -1 -58 8
-59 6 0 3 -5 -8 -10 -16 -7 -14 -9 13 -6 17 2 32 0 32 -5 0 -4 5 -8 10 -8 6 0
10 17 10 38 0 76 48 300 77 355 31 62 156 63 217 2 12 -13 17 -14 15 -4 -1 8
0 21 4 29 10 26 16 114 6 99 -6 -10 -9 -8 -9 9 0 13 6 22 15 22 10 0 15 11 15
35 0 21 -5 35 -12 35 -9 0 -9 3 1 9 11 7 4 11 -25 17 -21 4 -84 22 -138 41
-55 18 -101 33 -103 33 -1 0 -6 -8 -11 -17z m50 -27 c7 4 8 2 4 -5 -9 -13 -26
-5 -25 12 0 9 2 8 6 -1 2 -6 10 -9 15 -6z m-45 -38 c-3 -7 -5 -2 -5 12 0 14 2
19 5 13 2 -7 2 -19 0 -25z m166 5 c-7 -2 -21 -2 -30 0 -10 3 -4 5 12 5 17 0
24 -2 18 -5z m47 -17 c-14 -14 -12 -26 3 -26 6 0 13 -11 13 -25 2 -21 0 -22
-12 -10 -8 7 -15 24 -16 37 -2 13 -7 26 -13 30 -5 4 0 6 13 5 14 -1 18 -5 12
-11z m-230 -107 c0 -5 -4 -9 -10 -9 -5 0 -10 7 -10 16 0 8 5 12 10 9 6 -3 10
-10 10 -16z m183 -66 c-13 -2 -35 -2 -50 0 -16 2 -5 4 22 4 28 0 40 -2 28 -4z
m-143 -35 c0 -11 -12 -10 -30 2 -12 7 -10 9 8 7 12 0 22 -5 22 -9z m230 8 c0
-3 -4 -8 -10 -11 -5 -3 -10 -1 -10 4 0 6 5 11 10 11 6 0 10 -2 10 -4z m-261
-62 c-7 -16 -11 -36 -10 -44 3 -18 -2 -13 -18 17 -9 18 -9 22 3 17 9 -3 16 4
20 22 4 14 9 24 12 22 2 -3 -1 -18 -7 -34z m-19 -80 c0 -8 -4 -14 -10 -14 -5
0 -10 9 -10 21 0 11 5 17 10 14 6 -3 10 -13 10 -21z m-50 -80 c0 -8 -4 -12
-10 -9 -5 3 -10 13 -10 21 0 8 5 12 10 9 6 -3 10 -13 10 -21z m-17 -84 c3 -11
1 -18 -4 -14 -5 3 -9 12 -9 20 0 20 7 17 13 -6z m24 -32 c-3 -8 -6 -5 -6 6 -1
11 2 17 5 13 3 -3 4 -12 1 -19z"/>
<path d="M5732 4583 c-7 -10 -10 -12 -6 -4 6 11 3 13 -12 7 -10 -4 -45 -13
-76 -19 -32 -6 -58 -15 -58 -19 0 -5 9 -6 20 -3 46 15 75 12 93 -8 9 -11 17
-25 16 -31 0 -6 -3 -6 -6 2 -2 6 -13 12 -24 12 -10 0 -19 5 -19 10 0 7 -25 9
-72 6 -48 -4 -68 -2 -58 4 10 6 2 7 -25 3 -22 -3 -43 -8 -46 -12 -5 -5 -30
-433 -29 -506 0 -16 7 -20 35 -20 l35 0 0 70 c0 75 16 150 44 203 9 18 14 37
11 42 -3 5 0 12 6 16 8 5 9 3 4 -7 -8 -12 -6 -12 9 0 9 8 14 21 11 30 -3 8 -3
12 1 9 3 -4 22 5 42 20 28 21 46 27 88 27 52 0 53 1 47 25 -8 34 -13 38 -13
11 0 -19 -5 -22 -37 -20 -21 2 -48 -3 -60 -10 -15 -7 -23 -8 -23 -1 0 5 8 11
18 11 9 1 4 5 -13 9 -28 7 -28 7 7 5 20 -2 41 2 47 8 8 8 11 8 11 -1 0 -7 10
-12 23 -11 21 0 21 1 2 9 -11 5 -14 9 -7 9 24 2 42 29 42 65 0 35 -13 48 -23
24 -4 -10 -6 -10 -6 0 -1 7 6 15 14 18 8 4 15 12 15 20 0 19 -13 18 -28 -3z
m-258 -65 c-5 -8 -2 -9 9 -5 10 3 17 3 17 -2 0 -5 -9 -11 -19 -14 -13 -3 -18
0 -16 12 5 22 4 21 11 21 3 0 2 -5 -2 -12z m146 -7 c0 -5 -5 -11 -12 -13 -6
-2 -8 -10 -4 -16 5 -8 16 -10 28 -6 14 4 18 2 14 -5 -9 -15 -27 -13 -50 4 -15
12 -16 16 -5 29 16 17 29 20 29 7z m-12 -113 c-5 -14 -38 -20 -38 -6 0 6 7 8
15 4 8 -3 15 -1 15 4 0 6 3 10 6 10 3 0 4 -5 2 -12z m-60 -14 c-1 -5 -9 -9
-16 -10 -10 -2 -11 1 -1 12 12 14 24 13 17 -2z m2 -38 c0 -2 -8 -10 -17 -17
-16 -13 -17 -12 -4 4 13 16 21 21 21 13z m-63 -198 c-3 -8 -6 -5 -6 6 -1 11 2
17 5 13 3 -3 4 -12 1 -19z m3 -118 c0 -5 -5 -10 -11 -10 -5 0 -7 5 -4 10 3 6
8 10 11 10 2 0 4 -4 4 -10z"/>
<path d="M1073 2719 c-57 -14 -90 -54 -98 -121 -3 -29 -5 -360 -3 -735 3 -671
3 -682 24 -710 39 -53 75 -63 224 -63 111 0 142 4 177 19 63 29 70 51 78 247
l7 170 142 11 c168 14 237 35 341 104 40 27 76 49 79 49 3 0 6 -14 6 -30 0
-17 7 -66 16 -108 47 -233 223 -412 459 -468 102 -24 286 -15 376 18 126 46
236 130 299 228 18 28 36 50 40 50 5 0 14 -16 20 -35 31 -95 124 -190 237
-243 53 -25 68 -27 183 -27 116 0 129 2 179 27 l53 27 40 -20 c36 -18 55 -20
167 -17 69 2 133 7 143 12 15 7 17 -8 20 -156 5 -241 21 -260 238 -266 139 -3
174 7 214 61 19 25 22 47 26 190 l5 162 30 -5 c17 -3 100 -5 185 -5 l156 0 67
33 c71 35 167 117 208 177 13 19 26 35 29 35 3 0 16 -20 29 -45 50 -95 153
-169 272 -195 82 -18 260 -8 324 18 l50 20 40 -21 c33 -17 58 -21 145 -22 128
0 192 20 216 67 l16 31 25 -32 c46 -58 61 -61 326 -68 169 -4 269 -2 328 6
108 16 262 76 361 141 94 61 206 181 250 267 18 34 36 63 41 63 4 0 7 -76 7
-169 0 -277 20 -302 235 -302 126 0 161 8 206 48 15 12 20 11 44 -11 36 -33
67 -38 218 -34 118 3 127 5 152 28 15 14 32 36 38 50 7 16 13 142 17 343 l5
319 24 19 c32 26 77 24 106 -6 l25 -24 0 -274 c0 -295 8 -367 43 -405 39 -43
77 -52 209 -52 146 0 182 13 212 74 17 35 18 64 17 388 -2 373 -6 414 -52 515
-93 207 -343 304 -576 223 -59 -20 -63 -20 -95 -4 -37 19 -180 30 -252 20 -31
-5 -59 -18 -82 -38 -31 -27 -37 -29 -50 -16 -13 12 -11 22 18 77 29 56 33 73
33 140 0 65 -4 83 -28 124 -71 121 -227 158 -369 86 -45 -23 -93 -90 -109
-153 -15 -60 -5 -154 21 -206 24 -48 25 -63 4 -96 l-17 -25 -41 76 c-98 182
-246 302 -459 375 -120 41 -237 52 -502 48 -250 -3 -269 -7 -309 -61 -20 -27
-21 -42 -24 -355 l-3 -327 -24 57 c-63 153 -183 254 -347 293 -77 18 -252 19
-333 1 -166 -36 -271 -124 -312 -264 -10 -34 -21 -62 -24 -62 -3 0 -23 28 -44
62 -116 187 -316 289 -539 276 -54 -4 -103 -14 -143 -30 l-61 -25 -38 20 c-33
17 -59 21 -159 21 -105 1 -124 -2 -156 -20 -35 -21 -36 -21 -71 -3 -29 15 -62
19 -182 20 -235 2 -229 13 -236 -401 -4 -271 -7 -309 -23 -333 -23 -35 -84
-38 -113 -6 -18 19 -19 44 -24 333 -5 334 -5 333 -61 380 -30 25 -34 26 -172
26 -123 0 -146 -3 -174 -20 -50 -30 -66 -63 -71 -146 l-5 -74 -72 74 c-56 58
-90 82 -156 115 -256 124 -560 85 -761 -98 -31 -28 -28 -34 -51 89 -45 236
-221 417 -452 465 -88 18 -591 29 -652 14z m681 -127 c158 -59 257 -156 307
-300 63 -181 13 -424 -108 -532 -97 -87 -205 -117 -435 -122 l-148 -3 0 -207
c0 -174 -2 -209 -16 -222 -12 -13 -39 -16 -132 -16 -64 0 -122 4 -129 8 -10 6
-13 169 -15 702 -1 382 1 701 6 708 6 11 67 13 310 10 280 -4 305 -6 360 -26z
m6441 14 c47 -20 75 -68 75 -132 0 -56 -24 -102 -71 -136 -27 -21 -129 -35
-171 -25 -43 11 -82 103 -71 169 17 110 131 168 238 124z m-971 -26 c219 -32
428 -177 512 -354 56 -119 69 -183 68 -346 0 -129 -3 -154 -27 -225 -65 -199
-199 -333 -407 -412 -114 -42 -210 -53 -477 -53 -210 0 -224 1 -243 20 -20 20
-20 33 -20 681 0 436 4 667 10 680 10 18 24 19 263 19 139 0 283 -5 321 -10z
m-1089 -372 c110 -24 206 -92 250 -178 39 -76 45 -144 45 -496 0 -293 -2 -333
-16 -338 -9 -3 -60 -6 -114 -6 -109 0 -123 7 -135 60 l-7 31 -31 -24 c-80 -61
-139 -79 -256 -79 -212 0 -330 94 -339 269 -12 230 174 363 509 363 l112 0 -5
45 c-11 91 -64 129 -183 128 -72 0 -134 -20 -194 -63 -47 -33 -153 -20 -166
20 -9 27 10 94 40 145 29 51 95 98 160 117 88 25 231 27 330 6z m-3300 -3
c266 -70 426 -352 360 -634 -35 -145 -131 -279 -242 -338 -88 -47 -163 -65
-272 -66 -161 0 -274 44 -378 149 -201 201 -202 565 -1 764 61 60 135 103 215
125 68 19 245 18 318 0z m2308 -22 c127 -60 226 -181 262 -318 20 -78 20 -249
-1 -328 -23 -89 -69 -173 -130 -237 -99 -104 -223 -144 -374 -122 -94 13 -152
37 -203 82 l-37 32 0 -237 c0 -144 -4 -244 -10 -256 -10 -17 -22 -19 -118 -19
-71 0 -114 4 -125 13 -15 11 -16 72 -18 700 -1 514 2 692 10 700 8 8 49 12
110 12 115 0 131 -8 131 -68 l0 -41 33 31 c73 69 151 93 292 90 100 -2 116 -5
178 -34z m3981 -2 c103 -51 160 -134 187 -275 5 -27 9 -194 9 -372 0 -309 -1
-324 -19 -334 -25 -13 -211 -13 -231 0 -13 8 -16 59 -20 327 -5 314 -5 319
-29 360 -32 56 -86 83 -168 83 -74 0 -116 -25 -153 -90 -25 -45 -25 -46 -28
-355 -2 -196 -7 -314 -14 -322 -14 -17 -219 -18 -236 -1 -17 17 -17 969 0 986
8 8 50 12 125 12 125 0 132 -4 134 -72 0 -18 3 -27 6 -20 2 7 24 25 47 41 115
80 268 92 390 32z m-4887 2 c18 -24 19 -963 1 -981 -8 -8 -50 -12 -125 -12
-127 0 -133 3 -133 81 l0 41 -41 -42 c-22 -23 -70 -55 -105 -72 -61 -29 -70
-30 -162 -26 -76 3 -108 10 -147 28 -63 31 -134 101 -165 165 l-25 50 0 390 0
390 119 3 c76 2 123 -1 132 -8 10 -9 14 -78 16 -323 3 -294 4 -314 24 -347 32
-56 77 -80 146 -80 96 0 155 40 178 122 5 17 10 160 10 318 1 207 4 292 13
303 18 22 41 26 152 21 80 -3 102 -7 112 -21z m3993 7 c13 -8 15 -75 18 -481
2 -413 1 -475 -13 -495 -15 -23 -21 -24 -125 -24 -101 0 -110 2 -124 22 -14
20 -16 82 -16 483 0 401 2 463 16 483 14 20 23 22 122 22 59 0 114 -5 122 -10z
m-2664 -361 c19 -11 34 -24 34 -28 0 -9 -60 -54 -66 -49 -8 9 -17 98 -9 98 4
0 23 -9 41 -21z"/>
<path d="M1370 2119 l0 -222 124 6 c133 6 182 20 228 64 66 63 78 202 24 283
-43 66 -94 84 -248 88 l-128 4 0 -223z m257 95 c61 -38 69 -122 19 -173 -23
-23 -35 -26 -94 -26 l-67 0 -3 107 -3 107 28 4 c40 6 94 -3 120 -19z"/>
<path d="M6925 1896 l0 -416 137 0 c155 0 224 16 301 69 188 129 208 501 36
669 -71 70 -126 85 -314 90 l-160 4 0 -416z m306 289 c106 -38 160 -121 167
-260 8 -155 -33 -252 -128 -305 -36 -20 -63 -25 -137 -28 l-93 -4 0 306 0 306
74 0 c40 0 93 -7 117 -15z"/>
<path d="M6039 1628 c-149 -9 -209 -37 -229 -106 -20 -76 42 -142 134 -142
140 0 217 83 204 220 l-3 35 -106 -7z"/>
<path d="M2572 1939 c-109 -54 -159 -196 -117 -335 63 -212 347 -231 441 -30
49 104 24 256 -52 328 -65 61 -189 78 -272 37z m181 -93 c40 -24 61 -77 61
-151 0 -115 -42 -165 -137 -165 -71 0 -117 47 -131 136 -23 139 99 246 207
180z"/>
<path d="M4821 1957 c-52 -20 -112 -76 -134 -126 -16 -34 -21 -66 -21 -126 0
-97 15 -145 63 -198 89 -99 243 -105 335 -14 123 124 92 372 -57 448 -49 26
-140 33 -186 16z m139 -104 c76 -45 101 -190 47 -272 -44 -66 -134 -76 -194
-19 -71 67 -56 240 26 291 34 21 86 21 121 0z"/>
</g>
</svg>
